<svg height='451' width='451'  fill="#000000" xmlns="http://www.w3.org/2000/svg" data-name="Layer 1" viewBox="0 0 100 100" x="0px" y="0px"><title>21</title><g data-name="Group"><path data-name="Compound Path" d="M90.5,55.3a26.3,26.3,0,0,0-2.9-12.2c0-.4,0-.7,0-1.1A21.8,21.8,0,0,0,84,29.8c0-.3,0-.7,0-1.1a16.3,16.3,0,0,0-3.5-10.3A11.5,11.5,0,0,0,72.7,14a15.6,15.6,0,0,0-3-6.2A11,11,0,0,0,52,7.7,15,15,0,0,0,50,11a15,15,0,0,0-2-3.3,11,11,0,0,0-17.6,0,15.6,15.6,0,0,0-3,6.2,11.5,11.5,0,0,0-7.8,4.4A16.3,16.3,0,0,0,16,28.7c0,.4,0,.7,0,1.1A21.8,21.8,0,0,0,12.4,42c0,.4,0,.7,0,1.1A26.3,26.3,0,0,0,9.5,55.3a25.3,25.3,0,0,0,5.4,16L16,72.5q0,.2,0,.5a16.3,16.3,0,0,0,3.5,10.3,11.4,11.4,0,0,0,8.3,4.4,15.2,15.2,0,0,0,2.5,4.4A11.3,11.3,0,0,0,40,96.7c4.3-.4,8-3.5,10-7.9,2,4.4,5.7,7.6,10,7.9h.8a11.4,11.4,0,0,0,8.8-4.5,15.2,15.2,0,0,0,2.5-4.4,11.4,11.4,0,0,0,8.3-4.4A16.3,16.3,0,0,0,84,73q0-.3,0-.5l1.1-1.2A25.3,25.3,0,0,0,90.5,55.3ZM39,15.3a3,3,0,1,1-3,3A3,3,0,0,1,39,15.3Zm6.3,75.4V61.9a1.5,1.5,0,0,0-1.5-1.5h-15a6,6,0,1,0,0,3H42.3V84.3H34.4V77.8a6,6,0,1,0-3-.1v8a1.5,1.5,0,0,0,1.5,1.5h9.4V93a7.4,7.4,0,0,1-2.5.7,8.3,8.3,0,0,1-7.1-3.3,12.5,12.5,0,0,1-2.3-4.5,1.5,1.5,0,0,0-1.4-1.1h-.6a8.4,8.4,0,0,1-6.5-3.3A13.3,13.3,0,0,1,19,73q0-.5,0-.9h0a1.6,1.6,0,0,0-.3-1v-.2l-1.3-1.4a22.3,22.3,0,0,1-4.7-14.1,23.2,23.2,0,0,1,2.7-11.1h0a1.6,1.6,0,0,0,.2-.8h0c0-.4,0-.9,0-1.3a18.6,18.6,0,0,1,3.4-10.9h0a1.6,1.6,0,0,0,.3-.9V30a12.6,12.6,0,0,1-.1-1.3,13.3,13.3,0,0,1,2.8-8.5,8.4,8.4,0,0,1,6.5-3.3h.2A1.5,1.5,0,0,0,30,15.7a12.9,12.9,0,0,1,2.6-6A8.7,8.7,0,0,1,38,6.4v6a6,6,0,1,0,3,.3V6.5a8.9,8.9,0,0,1,4.7,3.1,12.9,12.9,0,0,1,2.6,6,14.6,14.6,0,0,1,.2,2.4V42.6H46V29.2a1.5,1.5,0,0,0-1.5-1.5h-9a6,6,0,1,0,.1,3H43V42.6H40.5a6,6,0,1,0-.1,3h8v6.7H23.4V46.8a6,6,0,1,0-3-.1v7a1.5,1.5,0,0,0,1.5,1.5H48.5V81.5A14,14,0,0,1,45.3,90.7ZM26,62a3,3,0,1,1-3-3A3,3,0,0,1,26,62Zm7,13a3,3,0,1,1,3-3A3,3,0,0,1,33,75Zm-.3-45.7a3,3,0,1,1-3-3A3,3,0,0,1,32.7,29.3Zm5,14.7a3,3,0,1,1-3-3A3,3,0,0,1,37.7,44ZM22,44a3,3,0,1,1,3-3A3,3,0,0,1,22,44ZM82.8,69.4l-1.3,1.4V71a1.6,1.6,0,0,0-.3,1h0q0,.5,0,.9a13.3,13.3,0,0,1-2.8,8.5,8.4,8.4,0,0,1-6.5,3.3h-.5a1.5,1.5,0,0,0-1.6,1.1,12.5,12.5,0,0,1-2.3,4.5,8.3,8.3,0,0,1-7.1,3.3c-4.9-.4-8.7-5.7-8.7-12.2V18.1a14.7,14.7,0,0,1,.2-2.4,12.9,12.9,0,0,1,2.6-6,8,8,0,0,1,13,0,12.9,12.9,0,0,1,2.6,6,1.5,1.5,0,0,0,1.5,1.3h.2a8.4,8.4,0,0,1,6.5,3.3A13.3,13.3,0,0,1,81,28.7a12.6,12.6,0,0,1-.1,1.3v.2a1.6,1.6,0,0,0,.3.9h0A18.6,18.6,0,0,1,84.6,42c0,.4,0,.9,0,1.3h0a1.6,1.6,0,0,0,.2.8h0a23.2,23.2,0,0,1,2.7,11.1A22.3,22.3,0,0,1,82.8,69.4Z"></path><path data-name="Path" d="M55.3,43.4h.5a8.2,8.2,0,0,0,5.5-9.7,7.8,7.8,0,0,0-4.8-14.8,1.5,1.5,0,0,0,.9,2.9,4.8,4.8,0,0,1,2.9,9.1l-1.1.2A1.5,1.5,0,0,0,58,33.1l.3.8a5.2,5.2,0,0,1-3.4,6.5,1.5,1.5,0,0,0,.5,2.9Z"></path><path data-name="Path" d="M71.3,64.7a1.5,1.5,0,0,0-1.1,1.8A7.5,7.5,0,0,1,65,75.8a7.4,7.4,0,0,1-3.1.2,1.5,1.5,0,0,0-1.3.4,7.8,7.8,0,0,1-3.6,2.2,1.5,1.5,0,0,0,.4,2.9h.4A10.9,10.9,0,0,0,62.2,79,10.5,10.5,0,0,0,73.1,65.7,1.5,1.5,0,0,0,71.3,64.7Z"></path><path data-name="Path" d="M75.7,53.1a10.5,10.5,0,0,0-16.4-5.2,1.5,1.5,0,1,0,1.8,2.4A7.5,7.5,0,0,1,73,54.5a1.5,1.5,0,0,0,.9,1,7.8,7.8,0,0,1,3.4,2.5,1.5,1.5,0,0,0,2.4-1.8A10.9,10.9,0,0,0,75.7,53.1Z"></path><path data-name="Path" d="M77.7,38a7.9,7.9,0,0,0-6.4-7.9,1.5,1.5,0,0,0-.6,2.9,4.9,4.9,0,0,1,3.9,5.6,1.5,1.5,0,0,0,.9,1.6,3.4,3.4,0,0,1,2.1,3.8,1.5,1.5,0,0,0,1.2,1.8h.3a1.5,1.5,0,0,0,1.5-1.2A6.4,6.4,0,0,0,77.7,38Z"></path><path data-name="Path" d="M64.8,59.7a20.7,20.7,0,0,0,4.5-3.3,1.5,1.5,0,0,0-2.1-2.2,17.3,17.3,0,0,1-4.4,3.1,1.5,1.5,0,0,0-.8,1.1c-.4,2.5-4,4.3-8,4a1.5,1.5,0,0,0-.2,3H55C59.8,65.4,63.7,63.1,64.8,59.7Z"></path></g></svg>